<svg width="16" height="4" viewBox="0 0 16 4" fill="none" xmlns="http://www.w3.org/2000/svg">
<path d="M4 2C4 3.10461 3.10449 4 2 4C0.895508 4 0 3.10461 0 2C0 0.895386 0.895508 0 2 0C3.10449 0 4 0.895386 4 2Z" fill="#6B6C7E"/>
<path d="M10 2C10 3.10461 9.10449 4 8 4C6.89551 4 6 3.10461 6 2C6 0.895386 6.89551 0 8 0C9.10449 0 10 0.895386 10 2Z" fill="#6B6C7E"/>
<path d="M14 4C15.1045 4 16 3.10461 16 2C16 0.895386 15.1045 0 14 0C12.8955 0 12 0.895386 12 2C12 3.10461 12.8955 4 14 4Z" fill="#6B6C7E"/>
</svg>
