<svg width="6" height="9" viewBox="0 0 6 9" fill="none" xmlns="http://www.w3.org/2000/svg">
<path d="M0.822905 7.10292L2.49776 8.77778C2.64045 8.92047 2.83226 9 3.03343 9C3.2346 9 3.42641 8.92047 3.5691 8.77778L5.24396 7.10292C5.54103 6.80585 5.54103 6.32632 5.24396 6.03158C5.09659 5.88421 4.90244 5.80936 4.70829 5.80936C4.51413 5.80936 4.31998 5.88421 4.17261 6.03158L3.78197 6.42222V0.748538C3.78197 0.334503 3.44747 0 3.03343 0C2.6194 0 2.28489 0.334503 2.28489 0.748538V6.42222L1.89425 6.03158C1.59717 5.7345 1.11764 5.7345 0.822905 6.03158C0.525829 6.32866 0.525829 6.80819 0.822905 7.10292Z" fill="#6B6C7E"/>
</svg>
