<svg width="16" height="10" viewBox="0 0 16 10" fill="none" xmlns="http://www.w3.org/2000/svg">
<path d="M15.6236 4.00309C13.8596 2.037 10.9339 -0.0412466 7.99953 0.000642576C5.06515 -0.0419223 2.13944 2.03767 0.375479 4.00309C0.133679 4.27697 0 4.63152 0 4.99897C0 5.36642 0.133679 5.72097 0.375479 5.99485C2.11877 7.94 5.00313 10 7.89216 10H8.09757C10.9966 10 13.8803 7.94 15.6256 5.99418C15.8671 5.72016 16.0004 5.36558 16 4.99825C15.9996 4.63091 15.8656 4.27661 15.6236 4.00309ZM4.93177 5.00032C4.93177 4.38564 5.11169 3.78475 5.44878 3.27366C5.78587 2.76257 6.26499 2.36422 6.82555 2.12899C7.38611 1.89376 8.00294 1.83221 8.59803 1.95213C9.19311 2.07205 9.73974 2.36805 10.1688 2.8027C10.5978 3.23735 10.89 3.79112 11.0083 4.394C11.1267 4.99687 11.066 5.62177 10.8338 6.18967C10.6016 6.75756 10.2084 7.24295 9.70389 7.58445C9.1994 7.92595 8.60628 8.10823 7.99953 8.10823C7.18591 8.10823 6.40562 7.78079 5.8303 7.19794C5.25498 6.6151 4.93177 5.82459 4.93177 5.00032Z" fill="#393A4A"/>
</svg>
